<mxfile host="app.diagrams.net" modified="2024-01-14T15:53:57.347Z" agent="Mozilla/5.0 (Windows NT 10.0; Win64; x64) AppleWebKit/537.36 (KHTML, like Gecko) Chrome/120.0.0.0 Safari/537.36" etag="qw7jWzxkksliO_0e4gKM" version="22.1.18" type="device">
  <diagram name="Page-1" id="pLBACOb88ehyEZi-GRjw">
    <mxGraphModel dx="2759" dy="2064" grid="1" gridSize="10" guides="1" tooltips="1" connect="1" arrows="1" fold="1" page="1" pageScale="1" pageWidth="850" pageHeight="1100" math="0" shadow="0">
      <root>
        <mxCell id="0" />
        <mxCell id="1" parent="0" />
        <mxCell id="-fVPYMPIlRwP1pR6XqqD-1" value="Students" style="whiteSpace=wrap;html=1;fillColor=#647687;strokeColor=#314354;fontColor=#ffffff;" parent="1" vertex="1">
          <mxGeometry x="370" y="199" width="100" height="30" as="geometry" />
        </mxCell>
        <mxCell id="-fVPYMPIlRwP1pR6XqqD-2" value="Full Name" style="ellipse;whiteSpace=wrap;html=1;" parent="1" vertex="1">
          <mxGeometry x="290" y="149" width="60" height="30" as="geometry" />
        </mxCell>
        <mxCell id="-fVPYMPIlRwP1pR6XqqD-3" value="&lt;u&gt;ID&lt;/u&gt;" style="ellipse;whiteSpace=wrap;html=1;" parent="1" vertex="1">
          <mxGeometry x="350" y="119" width="50" height="30" as="geometry" />
        </mxCell>
        <mxCell id="-fVPYMPIlRwP1pR6XqqD-4" value="Email" style="ellipse;whiteSpace=wrap;html=1;" parent="1" vertex="1">
          <mxGeometry x="410" y="109" width="65" height="30" as="geometry" />
        </mxCell>
        <mxCell id="-fVPYMPIlRwP1pR6XqqD-5" value="Passwod" style="ellipse;whiteSpace=wrap;html=1;" parent="1" vertex="1">
          <mxGeometry x="460" y="139" width="70" height="30" as="geometry" />
        </mxCell>
        <mxCell id="-fVPYMPIlRwP1pR6XqqD-7" value="" style="endArrow=none;html=1;rounded=0;exitX=0.25;exitY=0;exitDx=0;exitDy=0;entryX=0.5;entryY=1;entryDx=0;entryDy=0;" parent="1" source="-fVPYMPIlRwP1pR6XqqD-1" target="-fVPYMPIlRwP1pR6XqqD-3" edge="1">
          <mxGeometry width="50" height="50" relative="1" as="geometry">
            <mxPoint x="320" y="209" as="sourcePoint" />
            <mxPoint x="370" y="159" as="targetPoint" />
          </mxGeometry>
        </mxCell>
        <mxCell id="-fVPYMPIlRwP1pR6XqqD-8" value="" style="endArrow=none;html=1;rounded=0;exitX=0;exitY=0;exitDx=0;exitDy=0;entryX=0.5;entryY=1;entryDx=0;entryDy=0;" parent="1" source="-fVPYMPIlRwP1pR6XqqD-1" target="-fVPYMPIlRwP1pR6XqqD-2" edge="1">
          <mxGeometry width="50" height="50" relative="1" as="geometry">
            <mxPoint x="280" y="229" as="sourcePoint" />
            <mxPoint x="320" y="199" as="targetPoint" />
          </mxGeometry>
        </mxCell>
        <mxCell id="-fVPYMPIlRwP1pR6XqqD-9" value="" style="endArrow=none;html=1;rounded=0;exitX=0.5;exitY=0;exitDx=0;exitDy=0;entryX=0.5;entryY=1;entryDx=0;entryDy=0;" parent="1" source="-fVPYMPIlRwP1pR6XqqD-1" target="-fVPYMPIlRwP1pR6XqqD-4" edge="1">
          <mxGeometry width="50" height="50" relative="1" as="geometry">
            <mxPoint x="380" y="179" as="sourcePoint" />
            <mxPoint x="410" y="159" as="targetPoint" />
          </mxGeometry>
        </mxCell>
        <mxCell id="-fVPYMPIlRwP1pR6XqqD-10" value="" style="endArrow=none;html=1;rounded=0;exitX=1;exitY=0;exitDx=0;exitDy=0;entryX=0.5;entryY=1;entryDx=0;entryDy=0;" parent="1" source="-fVPYMPIlRwP1pR6XqqD-1" target="-fVPYMPIlRwP1pR6XqqD-5" edge="1">
          <mxGeometry width="50" height="50" relative="1" as="geometry">
            <mxPoint x="415" y="229" as="sourcePoint" />
            <mxPoint x="465" y="179" as="targetPoint" />
          </mxGeometry>
        </mxCell>
        <mxCell id="-fVPYMPIlRwP1pR6XqqD-12" value="Exam" style="whiteSpace=wrap;html=1;fillColor=#647687;strokeColor=#314354;fontColor=#ffffff;" parent="1" vertex="1">
          <mxGeometry x="342" y="454" width="100" height="30" as="geometry" />
        </mxCell>
        <mxCell id="-fVPYMPIlRwP1pR6XqqD-13" value="Start time" style="ellipse;whiteSpace=wrap;html=1;" parent="1" vertex="1">
          <mxGeometry x="212" y="499.25" width="60" height="30" as="geometry" />
        </mxCell>
        <mxCell id="-fVPYMPIlRwP1pR6XqqD-14" value="&lt;u&gt;ID&lt;/u&gt;" style="ellipse;whiteSpace=wrap;html=1;" parent="1" vertex="1">
          <mxGeometry x="244.5" y="454" width="50" height="30" as="geometry" />
        </mxCell>
        <mxCell id="-fVPYMPIlRwP1pR6XqqD-17" value="" style="endArrow=none;html=1;rounded=0;exitX=0;exitY=0.5;exitDx=0;exitDy=0;entryX=1;entryY=0.5;entryDx=0;entryDy=0;" parent="1" source="-fVPYMPIlRwP1pR6XqqD-12" target="-fVPYMPIlRwP1pR6XqqD-14" edge="1">
          <mxGeometry width="50" height="50" relative="1" as="geometry">
            <mxPoint x="297" y="414" as="sourcePoint" />
            <mxPoint x="347" y="364" as="targetPoint" />
          </mxGeometry>
        </mxCell>
        <mxCell id="-fVPYMPIlRwP1pR6XqqD-18" value="" style="endArrow=none;html=1;rounded=0;exitX=0;exitY=0.75;exitDx=0;exitDy=0;entryX=1;entryY=0;entryDx=0;entryDy=0;" parent="1" source="-fVPYMPIlRwP1pR6XqqD-12" target="-fVPYMPIlRwP1pR6XqqD-13" edge="1">
          <mxGeometry width="50" height="50" relative="1" as="geometry">
            <mxPoint x="257" y="434" as="sourcePoint" />
            <mxPoint x="297" y="404" as="targetPoint" />
            <Array as="points" />
          </mxGeometry>
        </mxCell>
        <mxCell id="-fVPYMPIlRwP1pR6XqqD-19" value="" style="endArrow=none;html=1;rounded=0;exitX=0.25;exitY=0;exitDx=0;exitDy=0;entryX=0.5;entryY=1;entryDx=0;entryDy=0;" parent="1" source="-fVPYMPIlRwP1pR6XqqD-12" target="-fVPYMPIlRwP1pR6XqqD-173" edge="1">
          <mxGeometry width="50" height="50" relative="1" as="geometry">
            <mxPoint x="357" y="384" as="sourcePoint" />
            <mxPoint x="332" y="434" as="targetPoint" />
          </mxGeometry>
        </mxCell>
        <mxCell id="-fVPYMPIlRwP1pR6XqqD-23" value="Type" style="ellipse;whiteSpace=wrap;html=1;" parent="1" vertex="1">
          <mxGeometry x="402" y="524" width="50" height="30" as="geometry" />
        </mxCell>
        <mxCell id="-fVPYMPIlRwP1pR6XqqD-24" value="Year" style="ellipse;whiteSpace=wrap;html=1;" parent="1" vertex="1">
          <mxGeometry x="411" y="374" width="65" height="30" as="geometry" />
        </mxCell>
        <mxCell id="-fVPYMPIlRwP1pR6XqqD-25" value="End time" style="ellipse;whiteSpace=wrap;html=1;" parent="1" vertex="1">
          <mxGeometry x="312" y="529" width="70" height="30" as="geometry" />
        </mxCell>
        <mxCell id="-fVPYMPIlRwP1pR6XqqD-26" value="" style="endArrow=none;html=1;rounded=0;exitX=0.75;exitY=1;exitDx=0;exitDy=0;entryX=0;entryY=0;entryDx=0;entryDy=0;" parent="1" source="-fVPYMPIlRwP1pR6XqqD-12" target="-fVPYMPIlRwP1pR6XqqD-23" edge="1">
          <mxGeometry width="50" height="50" relative="1" as="geometry">
            <mxPoint x="592" y="524" as="sourcePoint" />
            <mxPoint x="577" y="434" as="targetPoint" />
          </mxGeometry>
        </mxCell>
        <mxCell id="-fVPYMPIlRwP1pR6XqqD-27" value="" style="endArrow=none;html=1;rounded=0;exitX=1;exitY=1;exitDx=0;exitDy=0;entryX=0.5;entryY=0;entryDx=0;entryDy=0;" parent="1" source="-fVPYMPIlRwP1pR6XqqD-12" target="53eYGO9K9trzq3Cw-7BK-34" edge="1">
          <mxGeometry width="50" height="50" relative="1" as="geometry">
            <mxPoint x="567" y="524" as="sourcePoint" />
            <mxPoint x="459.02677969421893" y="510.67338437803437" as="targetPoint" />
          </mxGeometry>
        </mxCell>
        <mxCell id="-fVPYMPIlRwP1pR6XqqD-28" value="" style="endArrow=none;html=1;rounded=0;exitX=0.75;exitY=0;exitDx=0;exitDy=0;entryX=0.5;entryY=1;entryDx=0;entryDy=0;" parent="1" source="-fVPYMPIlRwP1pR6XqqD-12" target="-fVPYMPIlRwP1pR6XqqD-24" edge="1">
          <mxGeometry width="50" height="50" relative="1" as="geometry">
            <mxPoint x="617" y="524" as="sourcePoint" />
            <mxPoint x="617" y="434" as="targetPoint" />
          </mxGeometry>
        </mxCell>
        <mxCell id="-fVPYMPIlRwP1pR6XqqD-29" value="" style="endArrow=none;html=1;rounded=0;exitX=0.188;exitY=1.007;exitDx=0;exitDy=0;entryX=0.5;entryY=0;entryDx=0;entryDy=0;exitPerimeter=0;" parent="1" source="-fVPYMPIlRwP1pR6XqqD-12" target="-fVPYMPIlRwP1pR6XqqD-25" edge="1">
          <mxGeometry width="50" height="50" relative="1" as="geometry">
            <mxPoint x="667" y="524" as="sourcePoint" />
            <mxPoint x="672" y="454" as="targetPoint" />
          </mxGeometry>
        </mxCell>
        <mxCell id="-fVPYMPIlRwP1pR6XqqD-31" value="Has" style="rhombus;whiteSpace=wrap;html=1;" parent="1" vertex="1">
          <mxGeometry x="374" y="304.5" width="60" height="50" as="geometry" />
        </mxCell>
        <mxCell id="-fVPYMPIlRwP1pR6XqqD-32" value="" style="endArrow=none;html=1;rounded=0;entryX=0.5;entryY=1;entryDx=0;entryDy=0;exitX=0.5;exitY=0;exitDx=0;exitDy=0;fillColor=#647687;strokeColor=#314354;strokeWidth=3;" parent="1" source="-fVPYMPIlRwP1pR6XqqD-31" target="-fVPYMPIlRwP1pR6XqqD-1" edge="1">
          <mxGeometry width="50" height="50" relative="1" as="geometry">
            <mxPoint x="380" y="240" as="sourcePoint" />
            <mxPoint x="430" y="190" as="targetPoint" />
          </mxGeometry>
        </mxCell>
        <mxCell id="53eYGO9K9trzq3Cw-7BK-32" value="M" style="edgeLabel;html=1;align=center;verticalAlign=middle;resizable=0;points=[];" vertex="1" connectable="0" parent="-fVPYMPIlRwP1pR6XqqD-32">
          <mxGeometry x="0.5768" y="3" relative="1" as="geometry">
            <mxPoint as="offset" />
          </mxGeometry>
        </mxCell>
        <mxCell id="-fVPYMPIlRwP1pR6XqqD-33" value="" style="endArrow=none;html=1;rounded=0;entryX=0.5;entryY=1;entryDx=0;entryDy=0;exitX=0.5;exitY=0;exitDx=0;exitDy=0;fillColor=#647687;strokeColor=#314354;strokeWidth=3;" parent="1" source="-fVPYMPIlRwP1pR6XqqD-12" target="-fVPYMPIlRwP1pR6XqqD-31" edge="1">
          <mxGeometry width="50" height="50" relative="1" as="geometry">
            <mxPoint x="430" y="440" as="sourcePoint" />
            <mxPoint x="485" y="320" as="targetPoint" />
          </mxGeometry>
        </mxCell>
        <mxCell id="-fVPYMPIlRwP1pR6XqqD-36" value="Results" style="ellipse;whiteSpace=wrap;html=1;" parent="1" vertex="1">
          <mxGeometry x="299" y="283" width="65" height="30" as="geometry" />
        </mxCell>
        <mxCell id="-fVPYMPIlRwP1pR6XqqD-37" value="" style="endArrow=none;html=1;rounded=0;entryX=1;entryY=1;entryDx=0;entryDy=0;exitX=0;exitY=0;exitDx=0;exitDy=0;" parent="1" source="-fVPYMPIlRwP1pR6XqqD-31" target="-fVPYMPIlRwP1pR6XqqD-36" edge="1">
          <mxGeometry width="50" height="50" relative="1" as="geometry">
            <mxPoint x="220" y="342" as="sourcePoint" />
            <mxPoint x="270" y="292" as="targetPoint" />
          </mxGeometry>
        </mxCell>
        <mxCell id="-fVPYMPIlRwP1pR6XqqD-40" value="Questions" style="whiteSpace=wrap;html=1;fillColor=#647687;strokeColor=#314354;fontColor=#ffffff;" parent="1" vertex="1">
          <mxGeometry x="569.5" y="686.25" width="100" height="30" as="geometry" />
        </mxCell>
        <mxCell id="-fVPYMPIlRwP1pR6XqqD-41" value="Type" style="ellipse;whiteSpace=wrap;html=1;" parent="1" vertex="1">
          <mxGeometry x="492" y="719.25" width="60" height="30" as="geometry" />
        </mxCell>
        <mxCell id="-fVPYMPIlRwP1pR6XqqD-42" value="&lt;u&gt;ID&lt;/u&gt;" style="ellipse;whiteSpace=wrap;html=1;" parent="1" vertex="1">
          <mxGeometry x="577" y="789.25" width="50" height="30" as="geometry" />
        </mxCell>
        <mxCell id="-fVPYMPIlRwP1pR6XqqD-43" value="Text" style="ellipse;whiteSpace=wrap;html=1;" parent="1" vertex="1">
          <mxGeometry x="637" y="789.25" width="65" height="30" as="geometry" />
        </mxCell>
        <mxCell id="-fVPYMPIlRwP1pR6XqqD-44" value="" style="endArrow=none;html=1;rounded=0;exitX=0.5;exitY=1;exitDx=0;exitDy=0;entryX=0.5;entryY=0;entryDx=0;entryDy=0;" parent="1" source="-fVPYMPIlRwP1pR6XqqD-40" target="-fVPYMPIlRwP1pR6XqqD-42" edge="1">
          <mxGeometry width="50" height="50" relative="1" as="geometry">
            <mxPoint x="522" y="736.25" as="sourcePoint" />
            <mxPoint x="572" y="686.25" as="targetPoint" />
          </mxGeometry>
        </mxCell>
        <mxCell id="-fVPYMPIlRwP1pR6XqqD-45" value="" style="endArrow=none;html=1;rounded=0;exitX=0;exitY=0.5;exitDx=0;exitDy=0;entryX=0.5;entryY=0;entryDx=0;entryDy=0;" parent="1" source="-fVPYMPIlRwP1pR6XqqD-40" target="-fVPYMPIlRwP1pR6XqqD-41" edge="1">
          <mxGeometry width="50" height="50" relative="1" as="geometry">
            <mxPoint x="482" y="756.25" as="sourcePoint" />
            <mxPoint x="522" y="726.25" as="targetPoint" />
            <Array as="points" />
          </mxGeometry>
        </mxCell>
        <mxCell id="-fVPYMPIlRwP1pR6XqqD-46" value="" style="endArrow=none;html=1;rounded=0;entryX=0;entryY=0;entryDx=0;entryDy=0;exitX=0.616;exitY=1.064;exitDx=0;exitDy=0;exitPerimeter=0;" parent="1" source="-fVPYMPIlRwP1pR6XqqD-40" target="-fVPYMPIlRwP1pR6XqqD-43" edge="1">
          <mxGeometry width="50" height="50" relative="1" as="geometry">
            <mxPoint x="632" y="826.25" as="sourcePoint" />
            <mxPoint x="642" y="866.25" as="targetPoint" />
          </mxGeometry>
        </mxCell>
        <mxCell id="-fVPYMPIlRwP1pR6XqqD-48" value="Correct answer" style="ellipse;whiteSpace=wrap;html=1;" parent="1" vertex="1">
          <mxGeometry x="672" y="755.25" width="80" height="30" as="geometry" />
        </mxCell>
        <mxCell id="-fVPYMPIlRwP1pR6XqqD-50" value="Degree" style="ellipse;whiteSpace=wrap;html=1;" parent="1" vertex="1">
          <mxGeometry x="519.5" y="759.25" width="70" height="30" as="geometry" />
        </mxCell>
        <mxCell id="-fVPYMPIlRwP1pR6XqqD-51" value="" style="endArrow=none;html=1;rounded=0;exitX=1;exitY=1;exitDx=0;exitDy=0;entryX=0;entryY=0;entryDx=0;entryDy=0;" parent="1" source="-fVPYMPIlRwP1pR6XqqD-40" target="-fVPYMPIlRwP1pR6XqqD-48" edge="1">
          <mxGeometry width="50" height="50" relative="1" as="geometry">
            <mxPoint x="817" y="846.25" as="sourcePoint" />
            <mxPoint x="802" y="756.25" as="targetPoint" />
          </mxGeometry>
        </mxCell>
        <mxCell id="-fVPYMPIlRwP1pR6XqqD-52" value="" style="endArrow=none;html=1;rounded=0;exitX=1;exitY=0.5;exitDx=0;exitDy=0;entryX=0;entryY=0;entryDx=0;entryDy=0;" parent="1" source="-fVPYMPIlRwP1pR6XqqD-40" target="-fVPYMPIlRwP1pR6XqqD-69" edge="1">
          <mxGeometry width="50" height="50" relative="1" as="geometry">
            <mxPoint x="792" y="846.25" as="sourcePoint" />
            <mxPoint x="730.7867965644036" y="712.6433982822018" as="targetPoint" />
          </mxGeometry>
        </mxCell>
        <mxCell id="-fVPYMPIlRwP1pR6XqqD-54" value="" style="endArrow=none;html=1;rounded=0;exitX=0.188;exitY=1.007;exitDx=0;exitDy=0;entryX=0.5;entryY=0;entryDx=0;entryDy=0;exitPerimeter=0;" parent="1" source="-fVPYMPIlRwP1pR6XqqD-40" target="-fVPYMPIlRwP1pR6XqqD-50" edge="1">
          <mxGeometry width="50" height="50" relative="1" as="geometry">
            <mxPoint x="892" y="846.25" as="sourcePoint" />
            <mxPoint x="897" y="776.25" as="targetPoint" />
          </mxGeometry>
        </mxCell>
        <mxCell id="-fVPYMPIlRwP1pR6XqqD-55" value="Has" style="rhombus;whiteSpace=wrap;html=1;" parent="1" vertex="1">
          <mxGeometry x="455" y="593.25" width="60" height="50" as="geometry" />
        </mxCell>
        <mxCell id="-fVPYMPIlRwP1pR6XqqD-56" value="" style="endArrow=none;html=1;rounded=0;entryX=0.5;entryY=1;entryDx=0;entryDy=0;exitX=0.5;exitY=0;exitDx=0;exitDy=0;fillColor=#647687;strokeColor=#314354;strokeWidth=1;" parent="1" source="-fVPYMPIlRwP1pR6XqqD-40" target="-fVPYMPIlRwP1pR6XqqD-55" edge="1">
          <mxGeometry width="50" height="50" relative="1" as="geometry">
            <mxPoint x="505" y="790" as="sourcePoint" />
            <mxPoint x="495" y="660" as="targetPoint" />
          </mxGeometry>
        </mxCell>
        <mxCell id="-fVPYMPIlRwP1pR6XqqD-57" value="" style="endArrow=none;html=1;rounded=0;entryX=0.5;entryY=1;entryDx=0;entryDy=0;exitX=0.5;exitY=0;exitDx=0;exitDy=0;fillColor=#647687;strokeColor=#314354;strokeWidth=3;" parent="1" source="-fVPYMPIlRwP1pR6XqqD-55" target="-fVPYMPIlRwP1pR6XqqD-12" edge="1">
          <mxGeometry width="50" height="50" relative="1" as="geometry">
            <mxPoint x="475" y="720" as="sourcePoint" />
            <mxPoint x="465" y="590" as="targetPoint" />
          </mxGeometry>
        </mxCell>
        <mxCell id="-fVPYMPIlRwP1pR6XqqD-58" value="M" style="text;html=1;align=center;verticalAlign=middle;resizable=0;points=[];autosize=1;strokeColor=none;fillColor=none;" parent="1" vertex="1">
          <mxGeometry x="425" y="664" width="30" height="30" as="geometry" />
        </mxCell>
        <mxCell id="-fVPYMPIlRwP1pR6XqqD-60" value="M" style="text;html=1;align=center;verticalAlign=middle;resizable=0;points=[];autosize=1;strokeColor=none;fillColor=none;" parent="1" vertex="1">
          <mxGeometry x="373" y="427" width="30" height="30" as="geometry" />
        </mxCell>
        <mxCell id="-fVPYMPIlRwP1pR6XqqD-61" value="M" style="text;html=1;align=center;verticalAlign=middle;resizable=0;points=[];autosize=1;strokeColor=none;fillColor=none;" parent="1" vertex="1">
          <mxGeometry x="372" y="481" width="30" height="30" as="geometry" />
        </mxCell>
        <mxCell id="-fVPYMPIlRwP1pR6XqqD-69" value="Multi choice" style="ellipse;shape=doubleEllipse;margin=3;whiteSpace=wrap;html=1;align=center;" parent="1" vertex="1">
          <mxGeometry x="722" y="714.25" width="80" height="34" as="geometry" />
        </mxCell>
        <mxCell id="-fVPYMPIlRwP1pR6XqqD-70" value="Intake" style="whiteSpace=wrap;html=1;align=center;fillColor=#647687;fontColor=#ffffff;strokeColor=#314354;" parent="1" vertex="1">
          <mxGeometry x="716" y="323.75" width="90" height="28" as="geometry" />
        </mxCell>
        <mxCell id="-fVPYMPIlRwP1pR6XqqD-71" value="ID" style="ellipse;whiteSpace=wrap;html=1;align=center;fontStyle=4;" parent="1" vertex="1">
          <mxGeometry x="850" y="357.75" width="44" height="18.25" as="geometry" />
        </mxCell>
        <mxCell id="-fVPYMPIlRwP1pR6XqqD-73" value="Name" style="ellipse;whiteSpace=wrap;html=1;align=center;" parent="1" vertex="1">
          <mxGeometry x="806" y="376" width="54" height="28.75" as="geometry" />
        </mxCell>
        <mxCell id="-fVPYMPIlRwP1pR6XqqD-76" value="" style="endArrow=none;html=1;rounded=0;exitX=0;exitY=0.5;exitDx=0;exitDy=0;entryX=1;entryY=0.5;entryDx=0;entryDy=0;" parent="1" source="-fVPYMPIlRwP1pR6XqqD-71" target="-fVPYMPIlRwP1pR6XqqD-70" edge="1">
          <mxGeometry relative="1" as="geometry">
            <mxPoint x="726" y="451.75" as="sourcePoint" />
            <mxPoint x="886" y="451.75" as="targetPoint" />
          </mxGeometry>
        </mxCell>
        <mxCell id="-fVPYMPIlRwP1pR6XqqD-77" value="" style="endArrow=none;html=1;rounded=0;exitX=0;exitY=0.5;exitDx=0;exitDy=0;entryX=0.75;entryY=1;entryDx=0;entryDy=0;" parent="1" source="-fVPYMPIlRwP1pR6XqqD-73" target="-fVPYMPIlRwP1pR6XqqD-70" edge="1">
          <mxGeometry relative="1" as="geometry">
            <mxPoint x="726" y="451.75" as="sourcePoint" />
            <mxPoint x="886" y="451.75" as="targetPoint" />
          </mxGeometry>
        </mxCell>
        <mxCell id="-fVPYMPIlRwP1pR6XqqD-79" value="Department" style="whiteSpace=wrap;html=1;align=center;fillColor=#647687;fontColor=#ffffff;strokeColor=#314354;" parent="1" vertex="1">
          <mxGeometry x="930" y="259" width="90" height="28" as="geometry" />
        </mxCell>
        <mxCell id="-fVPYMPIlRwP1pR6XqqD-80" value="ID" style="ellipse;whiteSpace=wrap;html=1;align=center;fontStyle=4;" parent="1" vertex="1">
          <mxGeometry x="910" y="215.75" width="50" height="20" as="geometry" />
        </mxCell>
        <mxCell id="-fVPYMPIlRwP1pR6XqqD-81" value="Name" style="ellipse;whiteSpace=wrap;html=1;align=center;" parent="1" vertex="1">
          <mxGeometry x="990" y="215.75" width="50" height="26" as="geometry" />
        </mxCell>
        <mxCell id="-fVPYMPIlRwP1pR6XqqD-82" value="" style="endArrow=none;html=1;rounded=0;entryX=0.25;entryY=0;entryDx=0;entryDy=0;exitX=0.5;exitY=1;exitDx=0;exitDy=0;" parent="1" source="-fVPYMPIlRwP1pR6XqqD-80" target="-fVPYMPIlRwP1pR6XqqD-79" edge="1">
          <mxGeometry relative="1" as="geometry">
            <mxPoint x="935" y="231.75" as="sourcePoint" />
            <mxPoint x="1095" y="340.75" as="targetPoint" />
          </mxGeometry>
        </mxCell>
        <mxCell id="-fVPYMPIlRwP1pR6XqqD-83" value="" style="endArrow=none;html=1;rounded=0;entryX=0.5;entryY=0;entryDx=0;entryDy=0;exitX=0.5;exitY=1;exitDx=0;exitDy=0;" parent="1" source="-fVPYMPIlRwP1pR6XqqD-81" target="-fVPYMPIlRwP1pR6XqqD-79" edge="1">
          <mxGeometry relative="1" as="geometry">
            <mxPoint x="1025" y="230.75" as="sourcePoint" />
            <mxPoint x="1095" y="340.75" as="targetPoint" />
          </mxGeometry>
        </mxCell>
        <mxCell id="-fVPYMPIlRwP1pR6XqqD-84" value="Branches" style="whiteSpace=wrap;html=1;align=center;fillColor=#647687;fontColor=#ffffff;strokeColor=#314354;" parent="1" vertex="1">
          <mxGeometry x="716" y="442.5" width="90" height="28" as="geometry" />
        </mxCell>
        <mxCell id="-fVPYMPIlRwP1pR6XqqD-85" value="ID" style="ellipse;whiteSpace=wrap;html=1;align=center;fontStyle=4;" parent="1" vertex="1">
          <mxGeometry x="856" y="485" width="54" height="25" as="geometry" />
        </mxCell>
        <mxCell id="-fVPYMPIlRwP1pR6XqqD-86" value="Name" style="ellipse;whiteSpace=wrap;html=1;align=center;" parent="1" vertex="1">
          <mxGeometry x="786" y="505" width="54" height="25" as="geometry" />
        </mxCell>
        <mxCell id="-fVPYMPIlRwP1pR6XqqD-87" value="" style="endArrow=none;html=1;rounded=0;exitX=0;exitY=0.5;exitDx=0;exitDy=0;entryX=1;entryY=0.5;entryDx=0;entryDy=0;" parent="1" source="-fVPYMPIlRwP1pR6XqqD-85" target="-fVPYMPIlRwP1pR6XqqD-84" edge="1">
          <mxGeometry relative="1" as="geometry">
            <mxPoint x="726" y="570.5" as="sourcePoint" />
            <mxPoint x="886" y="570.5" as="targetPoint" />
          </mxGeometry>
        </mxCell>
        <mxCell id="-fVPYMPIlRwP1pR6XqqD-88" value="" style="endArrow=none;html=1;rounded=0;exitX=0.5;exitY=0;exitDx=0;exitDy=0;entryX=0.75;entryY=1;entryDx=0;entryDy=0;" parent="1" source="-fVPYMPIlRwP1pR6XqqD-86" target="-fVPYMPIlRwP1pR6XqqD-84" edge="1">
          <mxGeometry relative="1" as="geometry">
            <mxPoint x="726" y="570.5" as="sourcePoint" />
            <mxPoint x="886" y="570.5" as="targetPoint" />
          </mxGeometry>
        </mxCell>
        <mxCell id="-fVPYMPIlRwP1pR6XqqD-89" value="Address" style="ellipse;whiteSpace=wrap;html=1;align=center;" parent="1" vertex="1">
          <mxGeometry x="720" y="505" width="46" height="25" as="geometry" />
        </mxCell>
        <mxCell id="-fVPYMPIlRwP1pR6XqqD-90" value="" style="endArrow=none;html=1;rounded=0;entryX=0.5;entryY=1;entryDx=0;entryDy=0;exitX=0.5;exitY=0;exitDx=0;exitDy=0;" parent="1" source="-fVPYMPIlRwP1pR6XqqD-89" target="-fVPYMPIlRwP1pR6XqqD-84" edge="1">
          <mxGeometry relative="1" as="geometry">
            <mxPoint x="838" y="500" as="sourcePoint" />
            <mxPoint x="805" y="483" as="targetPoint" />
          </mxGeometry>
        </mxCell>
        <mxCell id="-fVPYMPIlRwP1pR6XqqD-92" value="Tracks" style="whiteSpace=wrap;html=1;align=center;fillColor=#647687;fontColor=#ffffff;strokeColor=#314354;" parent="1" vertex="1">
          <mxGeometry x="696" y="211.75" width="90" height="28" as="geometry" />
        </mxCell>
        <mxCell id="-fVPYMPIlRwP1pR6XqqD-93" value="ID" style="ellipse;whiteSpace=wrap;html=1;align=center;fontStyle=4;" parent="1" vertex="1">
          <mxGeometry x="683" y="160" width="60" height="30" as="geometry" />
        </mxCell>
        <mxCell id="-fVPYMPIlRwP1pR6XqqD-94" value="Name" style="ellipse;whiteSpace=wrap;html=1;align=center;" parent="1" vertex="1">
          <mxGeometry x="776" y="160" width="60" height="35" as="geometry" />
        </mxCell>
        <mxCell id="-fVPYMPIlRwP1pR6XqqD-95" value="" style="endArrow=none;html=1;rounded=0;exitX=0;exitY=1;exitDx=0;exitDy=0;entryX=0.25;entryY=0;entryDx=0;entryDy=0;" parent="1" source="-fVPYMPIlRwP1pR6XqqD-93" target="-fVPYMPIlRwP1pR6XqqD-92" edge="1">
          <mxGeometry relative="1" as="geometry">
            <mxPoint x="771" y="245.5" as="sourcePoint" />
            <mxPoint x="931" y="245.5" as="targetPoint" />
          </mxGeometry>
        </mxCell>
        <mxCell id="-fVPYMPIlRwP1pR6XqqD-96" value="" style="endArrow=none;html=1;rounded=0;exitX=0;exitY=1;exitDx=0;exitDy=0;entryX=0.75;entryY=0;entryDx=0;entryDy=0;" parent="1" source="-fVPYMPIlRwP1pR6XqqD-94" target="-fVPYMPIlRwP1pR6XqqD-92" edge="1">
          <mxGeometry relative="1" as="geometry">
            <mxPoint x="771" y="245.5" as="sourcePoint" />
            <mxPoint x="931" y="245.5" as="targetPoint" />
          </mxGeometry>
        </mxCell>
        <mxCell id="-fVPYMPIlRwP1pR6XqqD-97" value="Has" style="shape=rhombus;perimeter=rhombusPerimeter;whiteSpace=wrap;html=1;align=center;" parent="1" vertex="1">
          <mxGeometry x="560" y="163" width="40" height="36" as="geometry" />
        </mxCell>
        <mxCell id="-fVPYMPIlRwP1pR6XqqD-98" value="Has" style="shape=rhombus;perimeter=rhombusPerimeter;whiteSpace=wrap;html=1;align=center;" parent="1" vertex="1">
          <mxGeometry x="820" y="287" width="36" height="26" as="geometry" />
        </mxCell>
        <mxCell id="-fVPYMPIlRwP1pR6XqqD-99" value="Has" style="shape=rhombus;perimeter=rhombusPerimeter;whiteSpace=wrap;html=1;align=center;" parent="1" vertex="1">
          <mxGeometry x="840" y="239.5" width="36" height="27" as="geometry" />
        </mxCell>
        <mxCell id="-fVPYMPIlRwP1pR6XqqD-100" value="Has" style="shape=rhombus;perimeter=rhombusPerimeter;whiteSpace=wrap;html=1;align=center;" parent="1" vertex="1">
          <mxGeometry x="740" y="376" width="36" height="34" as="geometry" />
        </mxCell>
        <mxCell id="-fVPYMPIlRwP1pR6XqqD-102" value="" style="endArrow=none;html=1;rounded=0;entryX=0.058;entryY=1.02;entryDx=0;entryDy=0;exitX=1;exitY=0.5;exitDx=0;exitDy=0;fillColor=#647687;strokeColor=#314354;entryPerimeter=0;" parent="1" source="-fVPYMPIlRwP1pR6XqqD-98" target="-fVPYMPIlRwP1pR6XqqD-79" edge="1">
          <mxGeometry relative="1" as="geometry">
            <mxPoint x="985" y="300.75" as="sourcePoint" />
            <mxPoint x="965" y="280.75" as="targetPoint" />
          </mxGeometry>
        </mxCell>
        <mxCell id="-fVPYMPIlRwP1pR6XqqD-103" value="" style="endArrow=none;html=1;rounded=0;entryX=0;entryY=0.5;entryDx=0;entryDy=0;exitX=0.5;exitY=0;exitDx=0;exitDy=0;fillColor=#647687;strokeColor=#314354;" parent="1" source="-fVPYMPIlRwP1pR6XqqD-70" target="-fVPYMPIlRwP1pR6XqqD-98" edge="1">
          <mxGeometry relative="1" as="geometry">
            <mxPoint x="510" y="380" as="sourcePoint" />
            <mxPoint x="670" y="380" as="targetPoint" />
          </mxGeometry>
        </mxCell>
        <mxCell id="-fVPYMPIlRwP1pR6XqqD-104" value="" style="endArrow=none;html=1;rounded=0;entryX=0.5;entryY=1;entryDx=0;entryDy=0;exitX=0.5;exitY=0;exitDx=0;exitDy=0;fillColor=#647687;strokeColor=#314354;" parent="1" source="-fVPYMPIlRwP1pR6XqqD-100" target="-fVPYMPIlRwP1pR6XqqD-70" edge="1">
          <mxGeometry relative="1" as="geometry">
            <mxPoint x="600" y="370" as="sourcePoint" />
            <mxPoint x="760" y="370" as="targetPoint" />
          </mxGeometry>
        </mxCell>
        <mxCell id="-fVPYMPIlRwP1pR6XqqD-105" value="" style="endArrow=none;html=1;rounded=0;entryX=0.5;entryY=1;entryDx=0;entryDy=0;exitX=0.5;exitY=0;exitDx=0;exitDy=0;fillColor=#647687;strokeColor=#314354;" parent="1" source="-fVPYMPIlRwP1pR6XqqD-84" target="-fVPYMPIlRwP1pR6XqqD-100" edge="1">
          <mxGeometry relative="1" as="geometry">
            <mxPoint x="500" y="370" as="sourcePoint" />
            <mxPoint x="660" y="370" as="targetPoint" />
          </mxGeometry>
        </mxCell>
        <mxCell id="-fVPYMPIlRwP1pR6XqqD-106" value="" style="endArrow=none;html=1;rounded=0;entryX=0;entryY=0.5;entryDx=0;entryDy=0;exitX=1;exitY=0.5;exitDx=0;exitDy=0;fillColor=#647687;strokeColor=#314354;" parent="1" source="-fVPYMPIlRwP1pR6XqqD-99" target="-fVPYMPIlRwP1pR6XqqD-79" edge="1">
          <mxGeometry relative="1" as="geometry">
            <mxPoint x="630" y="300" as="sourcePoint" />
            <mxPoint x="790" y="300" as="targetPoint" />
          </mxGeometry>
        </mxCell>
        <mxCell id="-fVPYMPIlRwP1pR6XqqD-107" value="" style="endArrow=none;html=1;rounded=0;exitX=1.004;exitY=0.936;exitDx=0;exitDy=0;fillColor=#647687;strokeColor=#314354;entryX=0.105;entryY=0.46;entryDx=0;entryDy=0;entryPerimeter=0;exitPerimeter=0;" parent="1" source="-fVPYMPIlRwP1pR6XqqD-92" target="-fVPYMPIlRwP1pR6XqqD-99" edge="1">
          <mxGeometry relative="1" as="geometry">
            <mxPoint x="700" y="310" as="sourcePoint" />
            <mxPoint x="810" y="220" as="targetPoint" />
          </mxGeometry>
        </mxCell>
        <mxCell id="-fVPYMPIlRwP1pR6XqqD-109" value="" style="endArrow=none;html=1;rounded=0;entryX=1;entryY=1;entryDx=0;entryDy=0;fillColor=#647687;strokeColor=#314354;exitX=0;exitY=0.5;exitDx=0;exitDy=0;" parent="1" source="-fVPYMPIlRwP1pR6XqqD-99" target="-fVPYMPIlRwP1pR6XqqD-92" edge="1">
          <mxGeometry relative="1" as="geometry">
            <mxPoint x="810" y="240" as="sourcePoint" />
            <mxPoint x="860" y="310" as="targetPoint" />
          </mxGeometry>
        </mxCell>
        <mxCell id="-fVPYMPIlRwP1pR6XqqD-110" value="1" style="text;html=1;align=center;verticalAlign=middle;resizable=0;points=[];autosize=1;strokeColor=none;fillColor=none;" parent="1" vertex="1">
          <mxGeometry x="907" y="253" width="30" height="30" as="geometry" />
        </mxCell>
        <mxCell id="-fVPYMPIlRwP1pR6XqqD-112" value="M" style="text;html=1;align=center;verticalAlign=middle;resizable=0;points=[];autosize=1;strokeColor=none;fillColor=none;" parent="1" vertex="1">
          <mxGeometry x="778" y="223" width="30" height="30" as="geometry" />
        </mxCell>
        <mxCell id="-fVPYMPIlRwP1pR6XqqD-115" value="" style="endArrow=none;html=1;rounded=0;exitX=0.97;exitY=0.433;exitDx=0;exitDy=0;entryX=0;entryY=1;entryDx=0;entryDy=0;fillColor=#647687;strokeColor=#314354;exitPerimeter=0;" parent="1" source="-fVPYMPIlRwP1pR6XqqD-98" target="-fVPYMPIlRwP1pR6XqqD-79" edge="1">
          <mxGeometry relative="1" as="geometry">
            <mxPoint x="1001" y="314.75" as="sourcePoint" />
            <mxPoint x="980" y="288.75" as="targetPoint" />
          </mxGeometry>
        </mxCell>
        <mxCell id="-fVPYMPIlRwP1pR6XqqD-116" value="M" style="text;html=1;align=center;verticalAlign=middle;resizable=0;points=[];autosize=1;strokeColor=none;fillColor=none;" parent="1" vertex="1">
          <mxGeometry x="904" y="274" width="30" height="30" as="geometry" />
        </mxCell>
        <mxCell id="-fVPYMPIlRwP1pR6XqqD-117" value="" style="endArrow=none;html=1;rounded=0;entryX=0.044;entryY=0.573;entryDx=0;entryDy=0;fillColor=#647687;strokeColor=#314354;exitX=0.541;exitY=0.02;exitDx=0;exitDy=0;exitPerimeter=0;entryPerimeter=0;" parent="1" source="-fVPYMPIlRwP1pR6XqqD-70" target="-fVPYMPIlRwP1pR6XqqD-98" edge="1">
          <mxGeometry relative="1" as="geometry">
            <mxPoint x="770" y="310" as="sourcePoint" />
            <mxPoint x="756" y="310" as="targetPoint" />
          </mxGeometry>
        </mxCell>
        <mxCell id="-fVPYMPIlRwP1pR6XqqD-118" value="M" style="text;html=1;align=center;verticalAlign=middle;resizable=0;points=[];autosize=1;strokeColor=none;fillColor=none;" parent="1" vertex="1">
          <mxGeometry x="756" y="301.75" width="30" height="30" as="geometry" />
        </mxCell>
        <mxCell id="-fVPYMPIlRwP1pR6XqqD-119" value="" style="endArrow=none;html=1;rounded=0;entryX=0.409;entryY=0.95;entryDx=0;entryDy=0;entryPerimeter=0;exitX=0.466;exitY=0.039;exitDx=0;exitDy=0;exitPerimeter=0;fillColor=#647687;strokeColor=#314354;" parent="1" source="-fVPYMPIlRwP1pR6XqqD-84" target="-fVPYMPIlRwP1pR6XqqD-100" edge="1">
          <mxGeometry relative="1" as="geometry">
            <mxPoint x="740" y="430" as="sourcePoint" />
            <mxPoint x="766" y="422" as="targetPoint" />
          </mxGeometry>
        </mxCell>
        <mxCell id="-fVPYMPIlRwP1pR6XqqD-120" value="1" style="text;html=1;align=center;verticalAlign=middle;resizable=0;points=[];autosize=1;strokeColor=none;fillColor=none;" parent="1" vertex="1">
          <mxGeometry x="744" y="344" width="30" height="30" as="geometry" />
        </mxCell>
        <mxCell id="-fVPYMPIlRwP1pR6XqqD-121" value="M" style="text;html=1;align=center;verticalAlign=middle;resizable=0;points=[];autosize=1;strokeColor=none;fillColor=none;" parent="1" vertex="1">
          <mxGeometry x="743" y="420" width="30" height="30" as="geometry" />
        </mxCell>
        <mxCell id="-fVPYMPIlRwP1pR6XqqD-122" value="Has" style="shape=rhombus;perimeter=rhombusPerimeter;whiteSpace=wrap;html=1;align=center;" parent="1" vertex="1">
          <mxGeometry x="560" y="230" width="40" height="36" as="geometry" />
        </mxCell>
        <mxCell id="-fVPYMPIlRwP1pR6XqqD-123" value="Has" style="shape=rhombus;perimeter=rhombusPerimeter;whiteSpace=wrap;html=1;align=center;" parent="1" vertex="1">
          <mxGeometry x="560" y="298" width="40" height="36" as="geometry" />
        </mxCell>
        <mxCell id="-fVPYMPIlRwP1pR6XqqD-128" value="Has" style="shape=rhombus;perimeter=rhombusPerimeter;whiteSpace=wrap;html=1;align=center;" parent="1" vertex="1">
          <mxGeometry x="570" y="348.87" width="40" height="36" as="geometry" />
        </mxCell>
        <mxCell id="-fVPYMPIlRwP1pR6XqqD-129" value="Has" style="shape=rhombus;perimeter=rhombusPerimeter;whiteSpace=wrap;html=1;align=center;" parent="1" vertex="1">
          <mxGeometry x="590" y="404" width="40" height="36" as="geometry" />
        </mxCell>
        <mxCell id="-fVPYMPIlRwP1pR6XqqD-130" value="Has" style="shape=rhombus;perimeter=rhombusPerimeter;whiteSpace=wrap;html=1;align=center;" parent="1" vertex="1">
          <mxGeometry x="600" y="469" width="40" height="36" as="geometry" />
        </mxCell>
        <mxCell id="-fVPYMPIlRwP1pR6XqqD-131" value="" style="endArrow=none;html=1;rounded=0;exitX=0;exitY=0;exitDx=0;exitDy=0;entryX=1;entryY=0.5;entryDx=0;entryDy=0;fillColor=#647687;strokeColor=#314354;strokeWidth=3;" parent="1" source="-fVPYMPIlRwP1pR6XqqD-92" target="-fVPYMPIlRwP1pR6XqqD-97" edge="1">
          <mxGeometry relative="1" as="geometry">
            <mxPoint x="490" y="220" as="sourcePoint" />
            <mxPoint x="650" y="220" as="targetPoint" />
          </mxGeometry>
        </mxCell>
        <mxCell id="-fVPYMPIlRwP1pR6XqqD-132" value="" style="endArrow=none;html=1;rounded=0;exitX=0;exitY=0;exitDx=0;exitDy=0;entryX=1;entryY=0.5;entryDx=0;entryDy=0;fillColor=#647687;strokeColor=#314354;strokeWidth=3;" parent="1" source="-fVPYMPIlRwP1pR6XqqD-70" target="-fVPYMPIlRwP1pR6XqqD-122" edge="1">
          <mxGeometry relative="1" as="geometry">
            <mxPoint x="480" y="224" as="sourcePoint" />
            <mxPoint x="570" y="191" as="targetPoint" />
          </mxGeometry>
        </mxCell>
        <mxCell id="-fVPYMPIlRwP1pR6XqqD-133" value="" style="endArrow=none;html=1;rounded=0;exitX=0;exitY=0;exitDx=0;exitDy=0;entryX=1;entryY=0.5;entryDx=0;entryDy=0;fillColor=#647687;strokeColor=#314354;strokeWidth=3;" parent="1" source="-fVPYMPIlRwP1pR6XqqD-84" target="-fVPYMPIlRwP1pR6XqqD-123" edge="1">
          <mxGeometry relative="1" as="geometry">
            <mxPoint x="490" y="234" as="sourcePoint" />
            <mxPoint x="580" y="201" as="targetPoint" />
          </mxGeometry>
        </mxCell>
        <mxCell id="-fVPYMPIlRwP1pR6XqqD-134" value="" style="endArrow=none;html=1;rounded=0;exitX=1;exitY=0.5;exitDx=0;exitDy=0;entryX=0;entryY=0.5;entryDx=0;entryDy=0;fillColor=#647687;strokeColor=#314354;strokeWidth=3;" parent="1" source="-fVPYMPIlRwP1pR6XqqD-130" target="-fVPYMPIlRwP1pR6XqqD-84" edge="1">
          <mxGeometry relative="1" as="geometry">
            <mxPoint x="480" y="239" as="sourcePoint" />
            <mxPoint x="570" y="326" as="targetPoint" />
          </mxGeometry>
        </mxCell>
        <mxCell id="-fVPYMPIlRwP1pR6XqqD-135" value="" style="endArrow=none;html=1;rounded=0;exitX=1;exitY=0.5;exitDx=0;exitDy=0;entryX=0;entryY=0.5;entryDx=0;entryDy=0;fillColor=#647687;strokeColor=#314354;strokeWidth=3;" parent="1" source="-fVPYMPIlRwP1pR6XqqD-129" target="-fVPYMPIlRwP1pR6XqqD-70" edge="1">
          <mxGeometry relative="1" as="geometry">
            <mxPoint x="490" y="249" as="sourcePoint" />
            <mxPoint x="580" y="336" as="targetPoint" />
          </mxGeometry>
        </mxCell>
        <mxCell id="-fVPYMPIlRwP1pR6XqqD-136" value="" style="endArrow=none;html=1;rounded=0;exitX=0.5;exitY=0;exitDx=0;exitDy=0;entryX=0;entryY=0.75;entryDx=0;entryDy=0;fillColor=#647687;strokeColor=#314354;strokeWidth=3;" parent="1" source="-fVPYMPIlRwP1pR6XqqD-128" target="-fVPYMPIlRwP1pR6XqqD-92" edge="1">
          <mxGeometry relative="1" as="geometry">
            <mxPoint x="500" y="259" as="sourcePoint" />
            <mxPoint x="590" y="346" as="targetPoint" />
          </mxGeometry>
        </mxCell>
        <mxCell id="-fVPYMPIlRwP1pR6XqqD-143" value="1" style="text;html=1;align=center;verticalAlign=middle;resizable=0;points=[];autosize=1;strokeColor=none;fillColor=none;" parent="1" vertex="1">
          <mxGeometry x="694" y="420.5" width="30" height="30" as="geometry" />
        </mxCell>
        <mxCell id="-fVPYMPIlRwP1pR6XqqD-144" value="1" style="text;html=1;align=center;verticalAlign=middle;resizable=0;points=[];autosize=1;strokeColor=none;fillColor=none;" parent="1" vertex="1">
          <mxGeometry x="693" y="330.87" width="30" height="30" as="geometry" />
        </mxCell>
        <mxCell id="-fVPYMPIlRwP1pR6XqqD-145" value="1" style="text;html=1;align=center;verticalAlign=middle;resizable=0;points=[];autosize=1;strokeColor=none;fillColor=none;" parent="1" vertex="1">
          <mxGeometry x="672" y="193.75" width="30" height="30" as="geometry" />
        </mxCell>
        <mxCell id="-fVPYMPIlRwP1pR6XqqD-146" value="1" style="text;html=1;align=center;verticalAlign=middle;resizable=0;points=[];autosize=1;strokeColor=none;fillColor=none;" parent="1" vertex="1">
          <mxGeometry x="673" y="225" width="30" height="30" as="geometry" />
        </mxCell>
        <mxCell id="-fVPYMPIlRwP1pR6XqqD-147" value="1" style="text;html=1;align=center;verticalAlign=middle;resizable=0;points=[];autosize=1;strokeColor=none;fillColor=none;" parent="1" vertex="1">
          <mxGeometry x="692" y="303" width="30" height="30" as="geometry" />
        </mxCell>
        <mxCell id="-fVPYMPIlRwP1pR6XqqD-149" value="1" style="text;html=1;align=center;verticalAlign=middle;resizable=0;points=[];autosize=1;strokeColor=none;fillColor=none;" parent="1" vertex="1">
          <mxGeometry x="691" y="443.5" width="30" height="30" as="geometry" />
        </mxCell>
        <mxCell id="-fVPYMPIlRwP1pR6XqqD-150" value="" style="endArrow=none;html=1;rounded=0;exitX=1;exitY=0.25;exitDx=0;exitDy=0;entryX=0;entryY=0.5;entryDx=0;entryDy=0;fillColor=#647687;strokeColor=#314354;" parent="1" source="-fVPYMPIlRwP1pR6XqqD-1" target="-fVPYMPIlRwP1pR6XqqD-97" edge="1">
          <mxGeometry relative="1" as="geometry">
            <mxPoint x="480" y="200" as="sourcePoint" />
            <mxPoint x="640" y="200" as="targetPoint" />
          </mxGeometry>
        </mxCell>
        <mxCell id="-fVPYMPIlRwP1pR6XqqD-151" value="" style="endArrow=none;html=1;rounded=0;exitX=1;exitY=0.367;exitDx=0;exitDy=0;entryX=0.079;entryY=0.605;entryDx=0;entryDy=0;entryPerimeter=0;exitPerimeter=0;fillColor=#647687;strokeColor=#314354;" parent="1" source="-fVPYMPIlRwP1pR6XqqD-1" target="-fVPYMPIlRwP1pR6XqqD-97" edge="1">
          <mxGeometry relative="1" as="geometry">
            <mxPoint x="480" y="217" as="sourcePoint" />
            <mxPoint x="570" y="191" as="targetPoint" />
          </mxGeometry>
        </mxCell>
        <mxCell id="-fVPYMPIlRwP1pR6XqqD-152" value="" style="endArrow=none;html=1;rounded=0;exitX=1;exitY=0.5;exitDx=0;exitDy=0;entryX=0.021;entryY=0.435;entryDx=0;entryDy=0;entryPerimeter=0;fillColor=#647687;strokeColor=#314354;" parent="1" target="-fVPYMPIlRwP1pR6XqqD-122" edge="1">
          <mxGeometry relative="1" as="geometry">
            <mxPoint x="470" y="218" as="sourcePoint" />
            <mxPoint x="562" y="249.084" as="targetPoint" />
          </mxGeometry>
        </mxCell>
        <mxCell id="-fVPYMPIlRwP1pR6XqqD-153" value="" style="endArrow=none;html=1;rounded=0;exitX=1;exitY=0.75;exitDx=0;exitDy=0;entryX=0;entryY=0.5;entryDx=0;entryDy=0;fillColor=#647687;strokeColor=#314354;" parent="1" source="-fVPYMPIlRwP1pR6XqqD-1" target="-fVPYMPIlRwP1pR6XqqD-122" edge="1">
          <mxGeometry relative="1" as="geometry">
            <mxPoint x="453" y="272" as="sourcePoint" />
            <mxPoint x="546" y="247" as="targetPoint" />
          </mxGeometry>
        </mxCell>
        <mxCell id="-fVPYMPIlRwP1pR6XqqD-154" value="" style="endArrow=none;html=1;rounded=0;exitX=1;exitY=1;exitDx=0;exitDy=0;entryX=0.05;entryY=0.427;entryDx=0;entryDy=0;entryPerimeter=0;fillColor=#647687;strokeColor=#314354;" parent="1" source="-fVPYMPIlRwP1pR6XqqD-1" target="-fVPYMPIlRwP1pR6XqqD-123" edge="1">
          <mxGeometry relative="1" as="geometry">
            <mxPoint x="467.5" y="308" as="sourcePoint" />
            <mxPoint x="560.5" y="283" as="targetPoint" />
          </mxGeometry>
        </mxCell>
        <mxCell id="-fVPYMPIlRwP1pR6XqqD-155" value="" style="endArrow=none;html=1;rounded=0;exitX=0.974;exitY=1.04;exitDx=0;exitDy=0;entryX=0;entryY=0.5;entryDx=0;entryDy=0;exitPerimeter=0;fillColor=#647687;strokeColor=#314354;" parent="1" source="-fVPYMPIlRwP1pR6XqqD-1" target="-fVPYMPIlRwP1pR6XqqD-123" edge="1">
          <mxGeometry relative="1" as="geometry">
            <mxPoint x="457" y="360.87" as="sourcePoint" />
            <mxPoint x="550" y="335.87" as="targetPoint" />
          </mxGeometry>
        </mxCell>
        <mxCell id="-fVPYMPIlRwP1pR6XqqD-156" value="" style="endArrow=none;html=1;rounded=0;exitX=0.956;exitY=-0.021;exitDx=0;exitDy=0;entryX=0;entryY=0.5;entryDx=0;entryDy=0;exitPerimeter=0;fillColor=#647687;strokeColor=#314354;" parent="1" source="-fVPYMPIlRwP1pR6XqqD-12" target="-fVPYMPIlRwP1pR6XqqD-128" edge="1">
          <mxGeometry relative="1" as="geometry">
            <mxPoint x="483.5" y="429" as="sourcePoint" />
            <mxPoint x="576.5" y="404" as="targetPoint" />
          </mxGeometry>
        </mxCell>
        <mxCell id="-fVPYMPIlRwP1pR6XqqD-157" value="" style="endArrow=none;html=1;rounded=0;exitX=1;exitY=0;exitDx=0;exitDy=0;entryX=0.057;entryY=0.569;entryDx=0;entryDy=0;entryPerimeter=0;fillColor=#647687;strokeColor=#314354;" parent="1" source="-fVPYMPIlRwP1pR6XqqD-12" target="-fVPYMPIlRwP1pR6XqqD-128" edge="1">
          <mxGeometry relative="1" as="geometry">
            <mxPoint x="493.5" y="439" as="sourcePoint" />
            <mxPoint x="586.5" y="414" as="targetPoint" />
          </mxGeometry>
        </mxCell>
        <mxCell id="-fVPYMPIlRwP1pR6XqqD-158" value="" style="endArrow=none;html=1;rounded=0;entryX=0;entryY=0.5;entryDx=0;entryDy=0;fillColor=#647687;strokeColor=#314354;exitX=1;exitY=0.25;exitDx=0;exitDy=0;" parent="1" source="-fVPYMPIlRwP1pR6XqqD-12" target="-fVPYMPIlRwP1pR6XqqD-129" edge="1">
          <mxGeometry relative="1" as="geometry">
            <mxPoint x="490" y="460" as="sourcePoint" />
            <mxPoint x="561.5000000000001" y="441.5" as="targetPoint" />
          </mxGeometry>
        </mxCell>
        <mxCell id="-fVPYMPIlRwP1pR6XqqD-159" value="" style="endArrow=none;html=1;rounded=0;exitX=0.987;exitY=0.36;exitDx=0;exitDy=0;entryX=0.014;entryY=0.601;entryDx=0;entryDy=0;entryPerimeter=0;exitPerimeter=0;fillColor=#647687;strokeColor=#314354;" parent="1" source="-fVPYMPIlRwP1pR6XqqD-12" target="-fVPYMPIlRwP1pR6XqqD-129" edge="1">
          <mxGeometry relative="1" as="geometry">
            <mxPoint x="513.5" y="459" as="sourcePoint" />
            <mxPoint x="606.5" y="434" as="targetPoint" />
          </mxGeometry>
        </mxCell>
        <mxCell id="-fVPYMPIlRwP1pR6XqqD-160" value="" style="endArrow=none;html=1;rounded=0;exitX=0.996;exitY=0.645;exitDx=0;exitDy=0;fillColor=#647687;strokeColor=#314354;exitPerimeter=0;" parent="1" source="-fVPYMPIlRwP1pR6XqqD-12" target="-fVPYMPIlRwP1pR6XqqD-130" edge="1">
          <mxGeometry relative="1" as="geometry">
            <mxPoint x="523.5" y="469" as="sourcePoint" />
            <mxPoint x="616.5" y="444" as="targetPoint" />
          </mxGeometry>
        </mxCell>
        <mxCell id="-fVPYMPIlRwP1pR6XqqD-161" value="" style="endArrow=none;html=1;rounded=0;exitX=1;exitY=0.75;exitDx=0;exitDy=0;entryX=0.05;entryY=0.597;entryDx=0;entryDy=0;entryPerimeter=0;fillColor=#647687;strokeColor=#314354;" parent="1" source="-fVPYMPIlRwP1pR6XqqD-12" target="-fVPYMPIlRwP1pR6XqqD-130" edge="1">
          <mxGeometry relative="1" as="geometry">
            <mxPoint x="533.5" y="479" as="sourcePoint" />
            <mxPoint x="626.5" y="454" as="targetPoint" />
          </mxGeometry>
        </mxCell>
        <mxCell id="-fVPYMPIlRwP1pR6XqqD-162" value="M" style="text;html=1;align=center;verticalAlign=middle;resizable=0;points=[];autosize=1;strokeColor=none;fillColor=none;" parent="1" vertex="1">
          <mxGeometry x="466" y="208" width="30" height="30" as="geometry" />
        </mxCell>
        <mxCell id="-fVPYMPIlRwP1pR6XqqD-163" value="M" style="text;html=1;align=center;verticalAlign=middle;resizable=0;points=[];autosize=1;strokeColor=none;fillColor=none;" parent="1" vertex="1">
          <mxGeometry x="466.5" y="189" width="30" height="30" as="geometry" />
        </mxCell>
        <mxCell id="-fVPYMPIlRwP1pR6XqqD-164" value="M" style="text;html=1;align=center;verticalAlign=middle;resizable=0;points=[];autosize=1;strokeColor=none;fillColor=none;" parent="1" vertex="1">
          <mxGeometry x="426" y="431" width="30" height="30" as="geometry" />
        </mxCell>
        <mxCell id="-fVPYMPIlRwP1pR6XqqD-165" value="M" style="text;html=1;align=center;verticalAlign=middle;resizable=0;points=[];autosize=1;strokeColor=none;fillColor=none;" parent="1" vertex="1">
          <mxGeometry x="465" y="225" width="30" height="30" as="geometry" />
        </mxCell>
        <mxCell id="-fVPYMPIlRwP1pR6XqqD-166" value="M" style="text;html=1;align=center;verticalAlign=middle;resizable=0;points=[];autosize=1;strokeColor=none;fillColor=none;" parent="1" vertex="1">
          <mxGeometry x="434" y="461" width="30" height="30" as="geometry" />
        </mxCell>
        <mxCell id="-fVPYMPIlRwP1pR6XqqD-167" value="M" style="text;html=1;align=center;verticalAlign=middle;resizable=0;points=[];autosize=1;strokeColor=none;fillColor=none;" parent="1" vertex="1">
          <mxGeometry x="434.5" y="444" width="30" height="30" as="geometry" />
        </mxCell>
        <mxCell id="-fVPYMPIlRwP1pR6XqqD-169" value="Instructors" style="whiteSpace=wrap;html=1;fillColor=#647687;strokeColor=#314354;fontColor=#ffffff;" parent="1" vertex="1">
          <mxGeometry x="143" y="330.87" width="100" height="30" as="geometry" />
        </mxCell>
        <mxCell id="-fVPYMPIlRwP1pR6XqqD-170" value="Courses" style="whiteSpace=wrap;html=1;fillColor=#647687;strokeColor=#314354;fontColor=#ffffff;" parent="1" vertex="1">
          <mxGeometry x="97" y="543.25" width="100" height="30" as="geometry" />
        </mxCell>
        <mxCell id="-fVPYMPIlRwP1pR6XqqD-172" value="&lt;u&gt;ID&lt;/u&gt;" style="ellipse;whiteSpace=wrap;html=1;align=center;" parent="1" vertex="1">
          <mxGeometry x="32" y="495.25" width="70" height="30" as="geometry" />
        </mxCell>
        <mxCell id="-fVPYMPIlRwP1pR6XqqD-173" value="Total time" style="ellipse;whiteSpace=wrap;html=1;align=center;dashed=1;" parent="1" vertex="1">
          <mxGeometry x="294.5" y="381" width="80" height="33" as="geometry" />
        </mxCell>
        <mxCell id="-fVPYMPIlRwP1pR6XqqD-174" value="Name" style="ellipse;whiteSpace=wrap;html=1;align=center;" parent="1" vertex="1">
          <mxGeometry x="32" y="569.25" width="70" height="30" as="geometry" />
        </mxCell>
        <mxCell id="-fVPYMPIlRwP1pR6XqqD-175" value="Min degree" style="ellipse;whiteSpace=wrap;html=1;align=center;" parent="1" vertex="1">
          <mxGeometry x="102" y="593.25" width="70" height="30" as="geometry" />
        </mxCell>
        <mxCell id="-fVPYMPIlRwP1pR6XqqD-176" value="Max Degree" style="ellipse;whiteSpace=wrap;html=1;align=center;" parent="1" vertex="1">
          <mxGeometry x="158" y="623.25" width="70" height="30" as="geometry" />
        </mxCell>
        <mxCell id="-fVPYMPIlRwP1pR6XqqD-177" value="Decs" style="ellipse;whiteSpace=wrap;html=1;align=center;" parent="1" vertex="1">
          <mxGeometry x="-20" y="535.25" width="70" height="30" as="geometry" />
        </mxCell>
        <mxCell id="-fVPYMPIlRwP1pR6XqqD-178" value="Has" style="shape=rhombus;perimeter=rhombusPerimeter;whiteSpace=wrap;html=1;align=center;" parent="1" vertex="1">
          <mxGeometry x="452" y="663.25" width="50" height="46" as="geometry" />
        </mxCell>
        <mxCell id="-fVPYMPIlRwP1pR6XqqD-179" value="Has" style="shape=rhombus;perimeter=rhombusPerimeter;whiteSpace=wrap;html=1;align=center;" parent="1" vertex="1">
          <mxGeometry x="256" y="527.25" width="50" height="46" as="geometry" />
        </mxCell>
        <mxCell id="-fVPYMPIlRwP1pR6XqqD-180" value="" style="endArrow=none;html=1;rounded=0;entryX=0;entryY=1;entryDx=0;entryDy=0;exitX=0.5;exitY=0;exitDx=0;exitDy=0;fillColor=#647687;strokeColor=#314354;strokeWidth=1;" parent="1" source="-fVPYMPIlRwP1pR6XqqD-179" target="-fVPYMPIlRwP1pR6XqqD-12" edge="1">
          <mxGeometry relative="1" as="geometry">
            <mxPoint x="162" y="584" as="sourcePoint" />
            <mxPoint x="322" y="584" as="targetPoint" />
          </mxGeometry>
        </mxCell>
        <mxCell id="-fVPYMPIlRwP1pR6XqqD-181" value="" style="endArrow=none;html=1;rounded=0;exitX=1;exitY=0;exitDx=0;exitDy=0;fillColor=#647687;strokeColor=#314354;strokeWidth=3;entryX=0;entryY=0.5;entryDx=0;entryDy=0;" parent="1" source="-fVPYMPIlRwP1pR6XqqD-170" target="-fVPYMPIlRwP1pR6XqqD-179" edge="1">
          <mxGeometry relative="1" as="geometry">
            <mxPoint x="50" y="625" as="sourcePoint" />
            <mxPoint x="280" y="630" as="targetPoint" />
          </mxGeometry>
        </mxCell>
        <mxCell id="-fVPYMPIlRwP1pR6XqqD-182" value="" style="endArrow=none;html=1;rounded=0;exitX=1;exitY=0.5;exitDx=0;exitDy=0;entryX=0;entryY=0.5;entryDx=0;entryDy=0;fillColor=#647687;strokeColor=#314354;strokeWidth=3;" parent="1" source="-fVPYMPIlRwP1pR6XqqD-170" target="-fVPYMPIlRwP1pR6XqqD-178" edge="1">
          <mxGeometry relative="1" as="geometry">
            <mxPoint x="50" y="570" as="sourcePoint" />
            <mxPoint x="210" y="570" as="targetPoint" />
          </mxGeometry>
        </mxCell>
        <mxCell id="-fVPYMPIlRwP1pR6XqqD-183" value="" style="endArrow=none;html=1;rounded=0;exitX=0;exitY=0;exitDx=0;exitDy=0;entryX=1;entryY=0.5;entryDx=0;entryDy=0;fillColor=#647687;strokeColor=#314354;strokeWidth=1;" parent="1" source="-fVPYMPIlRwP1pR6XqqD-40" target="-fVPYMPIlRwP1pR6XqqD-178" edge="1">
          <mxGeometry relative="1" as="geometry">
            <mxPoint x="232" y="566.25" as="sourcePoint" />
            <mxPoint x="392" y="566.25" as="targetPoint" />
          </mxGeometry>
        </mxCell>
        <mxCell id="-fVPYMPIlRwP1pR6XqqD-184" value="1" style="text;html=1;align=center;verticalAlign=middle;resizable=0;points=[];autosize=1;strokeColor=none;fillColor=none;" parent="1" vertex="1">
          <mxGeometry x="198" y="539.25" width="30" height="30" as="geometry" />
        </mxCell>
        <mxCell id="-fVPYMPIlRwP1pR6XqqD-185" value="1" style="text;html=1;align=center;verticalAlign=middle;resizable=0;points=[];autosize=1;strokeColor=none;fillColor=none;" parent="1" vertex="1">
          <mxGeometry x="198" y="513.25" width="30" height="30" as="geometry" />
        </mxCell>
        <mxCell id="-fVPYMPIlRwP1pR6XqqD-188" value="M" style="text;html=1;align=center;verticalAlign=middle;resizable=0;points=[];autosize=1;strokeColor=none;fillColor=none;" parent="1" vertex="1">
          <mxGeometry x="546" y="673.25" width="30" height="30" as="geometry" />
        </mxCell>
        <mxCell id="-fVPYMPIlRwP1pR6XqqD-189" value="M" style="text;html=1;align=center;verticalAlign=middle;resizable=0;points=[];autosize=1;strokeColor=none;fillColor=none;" parent="1" vertex="1">
          <mxGeometry x="312" y="476" width="30" height="30" as="geometry" />
        </mxCell>
        <mxCell id="-fVPYMPIlRwP1pR6XqqD-190" value="" style="endArrow=none;html=1;rounded=0;exitX=0.5;exitY=0;exitDx=0;exitDy=0;entryX=0;entryY=0.5;entryDx=0;entryDy=0;" parent="1" source="-fVPYMPIlRwP1pR6XqqD-174" target="-fVPYMPIlRwP1pR6XqqD-170" edge="1">
          <mxGeometry relative="1" as="geometry">
            <mxPoint x="62" y="445.25" as="sourcePoint" />
            <mxPoint x="222" y="445.25" as="targetPoint" />
          </mxGeometry>
        </mxCell>
        <mxCell id="-fVPYMPIlRwP1pR6XqqD-191" value="" style="endArrow=none;html=1;rounded=0;exitX=1;exitY=0.5;exitDx=0;exitDy=0;entryX=0.25;entryY=0;entryDx=0;entryDy=0;" parent="1" source="-fVPYMPIlRwP1pR6XqqD-172" target="-fVPYMPIlRwP1pR6XqqD-170" edge="1">
          <mxGeometry relative="1" as="geometry">
            <mxPoint x="62" y="465.25" as="sourcePoint" />
            <mxPoint x="222" y="465.25" as="targetPoint" />
          </mxGeometry>
        </mxCell>
        <mxCell id="-fVPYMPIlRwP1pR6XqqD-192" value="" style="endArrow=none;html=1;rounded=0;entryX=0.25;entryY=1;entryDx=0;entryDy=0;exitX=0.5;exitY=0;exitDx=0;exitDy=0;" parent="1" source="-fVPYMPIlRwP1pR6XqqD-175" target="-fVPYMPIlRwP1pR6XqqD-170" edge="1">
          <mxGeometry relative="1" as="geometry">
            <mxPoint x="32" y="645.25" as="sourcePoint" />
            <mxPoint x="192" y="645.25" as="targetPoint" />
          </mxGeometry>
        </mxCell>
        <mxCell id="-fVPYMPIlRwP1pR6XqqD-193" value="" style="endArrow=none;html=1;rounded=0;exitX=0.75;exitY=1;exitDx=0;exitDy=0;entryX=0.5;entryY=0;entryDx=0;entryDy=0;" parent="1" source="-fVPYMPIlRwP1pR6XqqD-170" target="-fVPYMPIlRwP1pR6XqqD-176" edge="1">
          <mxGeometry relative="1" as="geometry">
            <mxPoint x="102" y="435.25" as="sourcePoint" />
            <mxPoint x="262" y="435.25" as="targetPoint" />
          </mxGeometry>
        </mxCell>
        <mxCell id="-fVPYMPIlRwP1pR6XqqD-194" value="" style="endArrow=none;html=1;rounded=0;exitX=0;exitY=0.5;exitDx=0;exitDy=0;entryX=1;entryY=1;entryDx=0;entryDy=0;" parent="1" source="-fVPYMPIlRwP1pR6XqqD-170" target="-fVPYMPIlRwP1pR6XqqD-177" edge="1">
          <mxGeometry relative="1" as="geometry">
            <mxPoint x="62" y="435.25" as="sourcePoint" />
            <mxPoint x="233" y="585.25" as="targetPoint" />
          </mxGeometry>
        </mxCell>
        <mxCell id="-fVPYMPIlRwP1pR6XqqD-196" value="ID" style="ellipse;whiteSpace=wrap;html=1;align=center;fontStyle=4;" parent="1" vertex="1">
          <mxGeometry x="82" y="357.5" width="50" height="21" as="geometry" />
        </mxCell>
        <mxCell id="-fVPYMPIlRwP1pR6XqqD-198" value="Name" style="ellipse;whiteSpace=wrap;html=1;align=center;" parent="1" vertex="1">
          <mxGeometry x="102" y="388.5" width="60" height="20" as="geometry" />
        </mxCell>
        <mxCell id="-fVPYMPIlRwP1pR6XqqD-199" value="Email" style="ellipse;whiteSpace=wrap;html=1;align=center;" parent="1" vertex="1">
          <mxGeometry x="152" y="413" width="60" height="20" as="geometry" />
        </mxCell>
        <mxCell id="-fVPYMPIlRwP1pR6XqqD-200" value="Password" style="ellipse;whiteSpace=wrap;html=1;align=center;" parent="1" vertex="1">
          <mxGeometry x="37" y="306.75" width="60" height="20" as="geometry" />
        </mxCell>
        <mxCell id="-fVPYMPIlRwP1pR6XqqD-202" value="" style="endArrow=none;html=1;rounded=0;entryX=0;entryY=0.25;entryDx=0;entryDy=0;exitX=0.681;exitY=0.963;exitDx=0;exitDy=0;exitPerimeter=0;" parent="1" source="-fVPYMPIlRwP1pR6XqqD-200" target="-fVPYMPIlRwP1pR6XqqD-169" edge="1">
          <mxGeometry relative="1" as="geometry">
            <mxPoint x="90" y="317" as="sourcePoint" />
            <mxPoint x="160" y="349.25" as="targetPoint" />
          </mxGeometry>
        </mxCell>
        <mxCell id="-fVPYMPIlRwP1pR6XqqD-203" value="" style="endArrow=none;html=1;rounded=0;entryX=0.25;entryY=1;entryDx=0;entryDy=0;exitX=0.5;exitY=0;exitDx=0;exitDy=0;" parent="1" source="-fVPYMPIlRwP1pR6XqqD-199" target="-fVPYMPIlRwP1pR6XqqD-169" edge="1">
          <mxGeometry relative="1" as="geometry">
            <mxPoint x="177" y="408.5" as="sourcePoint" />
            <mxPoint x="232" y="450" as="targetPoint" />
          </mxGeometry>
        </mxCell>
        <mxCell id="-fVPYMPIlRwP1pR6XqqD-204" value="" style="endArrow=none;html=1;rounded=0;exitX=0.5;exitY=0;exitDx=0;exitDy=0;entryX=0;entryY=1;entryDx=0;entryDy=0;" parent="1" source="-fVPYMPIlRwP1pR6XqqD-198" target="-fVPYMPIlRwP1pR6XqqD-169" edge="1">
          <mxGeometry relative="1" as="geometry">
            <mxPoint x="112" y="490" as="sourcePoint" />
            <mxPoint x="152" y="368.5" as="targetPoint" />
          </mxGeometry>
        </mxCell>
        <mxCell id="-fVPYMPIlRwP1pR6XqqD-205" value="" style="endArrow=none;html=1;rounded=0;entryX=0;entryY=0.5;entryDx=0;entryDy=0;exitX=1;exitY=0;exitDx=0;exitDy=0;" parent="1" source="-fVPYMPIlRwP1pR6XqqD-196" target="-fVPYMPIlRwP1pR6XqqD-169" edge="1">
          <mxGeometry relative="1" as="geometry">
            <mxPoint x="142" y="440" as="sourcePoint" />
            <mxPoint x="302" y="440" as="targetPoint" />
          </mxGeometry>
        </mxCell>
        <mxCell id="-fVPYMPIlRwP1pR6XqqD-208" value="" style="endArrow=none;html=1;rounded=0;entryX=0.5;entryY=1;entryDx=0;entryDy=0;exitX=0.373;exitY=-0.056;exitDx=0;exitDy=0;fillColor=#647687;strokeColor=#314354;strokeWidth=3;exitPerimeter=0;" parent="1" source="-fVPYMPIlRwP1pR6XqqD-170" target="53eYGO9K9trzq3Cw-7BK-10" edge="1">
          <mxGeometry relative="1" as="geometry">
            <mxPoint x="52" y="400.25" as="sourcePoint" />
            <mxPoint x="172" y="500.24999999999955" as="targetPoint" />
          </mxGeometry>
        </mxCell>
        <mxCell id="53eYGO9K9trzq3Cw-7BK-33" value="M" style="edgeLabel;html=1;align=center;verticalAlign=middle;resizable=0;points=[];" vertex="1" connectable="0" parent="-fVPYMPIlRwP1pR6XqqD-208">
          <mxGeometry x="-0.8236" y="-3" relative="1" as="geometry">
            <mxPoint as="offset" />
          </mxGeometry>
        </mxCell>
        <mxCell id="-fVPYMPIlRwP1pR6XqqD-211" value="Make" style="shape=rhombus;perimeter=rhombusPerimeter;whiteSpace=wrap;html=1;align=center;" parent="1" vertex="1">
          <mxGeometry x="226" y="408.5" width="50" height="46" as="geometry" />
        </mxCell>
        <mxCell id="-fVPYMPIlRwP1pR6XqqD-212" value="" style="endArrow=none;html=1;rounded=0;exitX=1;exitY=0.5;exitDx=0;exitDy=0;entryX=0.5;entryY=0;entryDx=0;entryDy=0;fillColor=#647687;strokeColor=#314354;strokeWidth=3;" parent="1" source="-fVPYMPIlRwP1pR6XqqD-169" target="-fVPYMPIlRwP1pR6XqqD-211" edge="1">
          <mxGeometry relative="1" as="geometry">
            <mxPoint x="190" y="494.25" as="sourcePoint" />
            <mxPoint x="266" y="419.75" as="targetPoint" />
          </mxGeometry>
        </mxCell>
        <mxCell id="-fVPYMPIlRwP1pR6XqqD-213" value="" style="endArrow=none;html=1;rounded=0;exitX=1;exitY=0.5;exitDx=0;exitDy=0;entryX=0;entryY=0;entryDx=0;entryDy=0;fillColor=#647687;strokeColor=#314354;strokeWidth=3;" parent="1" source="-fVPYMPIlRwP1pR6XqqD-211" target="-fVPYMPIlRwP1pR6XqqD-12" edge="1">
          <mxGeometry relative="1" as="geometry">
            <mxPoint x="175" y="476" as="sourcePoint" />
            <mxPoint x="230" y="409" as="targetPoint" />
          </mxGeometry>
        </mxCell>
        <mxCell id="-fVPYMPIlRwP1pR6XqqD-214" value="1" style="text;html=1;align=center;verticalAlign=middle;resizable=0;points=[];autosize=1;strokeColor=none;fillColor=none;" parent="1" vertex="1">
          <mxGeometry x="246" y="324.5" width="30" height="30" as="geometry" />
        </mxCell>
        <mxCell id="-fVPYMPIlRwP1pR6XqqD-215" value="M" style="text;html=1;align=center;verticalAlign=middle;resizable=0;points=[];autosize=1;strokeColor=none;fillColor=none;" parent="1" vertex="1">
          <mxGeometry x="306" y="431" width="30" height="30" as="geometry" />
        </mxCell>
        <mxCell id="-fVPYMPIlRwP1pR6XqqD-216" value="Training Manager" style="shape=rhombus;perimeter=rhombusPerimeter;whiteSpace=wrap;html=1;align=center;" parent="1" vertex="1">
          <mxGeometry x="180" y="223" width="90" height="58" as="geometry" />
        </mxCell>
        <mxCell id="-fVPYMPIlRwP1pR6XqqD-217" value="" style="endArrow=none;html=1;rounded=0;fillColor=#647687;strokeColor=#314354;strokeWidth=3;entryX=0.111;entryY=0.638;entryDx=0;entryDy=0;entryPerimeter=0;exitX=0.5;exitY=0;exitDx=0;exitDy=0;" parent="1" source="-fVPYMPIlRwP1pR6XqqD-169" target="-fVPYMPIlRwP1pR6XqqD-216" edge="1">
          <mxGeometry relative="1" as="geometry">
            <mxPoint x="190" y="328.25" as="sourcePoint" />
            <mxPoint x="176" y="258.9999999999998" as="targetPoint" />
          </mxGeometry>
        </mxCell>
        <mxCell id="53eYGO9K9trzq3Cw-7BK-23" value="1" style="edgeLabel;html=1;align=center;verticalAlign=middle;resizable=0;points=[];" vertex="1" connectable="0" parent="-fVPYMPIlRwP1pR6XqqD-217">
          <mxGeometry x="-0.426" y="1" relative="1" as="geometry">
            <mxPoint as="offset" />
          </mxGeometry>
        </mxCell>
        <mxCell id="-fVPYMPIlRwP1pR6XqqD-218" value="" style="endArrow=none;html=1;rounded=0;fillColor=#647687;strokeColor=#314354;strokeWidth=3;entryX=1;entryY=0.5;entryDx=0;entryDy=0;exitX=0.905;exitY=0.043;exitDx=0;exitDy=0;exitPerimeter=0;" parent="1" source="-fVPYMPIlRwP1pR6XqqD-169" edge="1">
          <mxGeometry relative="1" as="geometry">
            <mxPoint x="222" y="328.5" as="sourcePoint" />
            <mxPoint x="266" y="258.9999999999998" as="targetPoint" />
          </mxGeometry>
        </mxCell>
        <mxCell id="53eYGO9K9trzq3Cw-7BK-15" value="M" style="edgeLabel;html=1;align=center;verticalAlign=middle;resizable=0;points=[];" vertex="1" connectable="0" parent="-fVPYMPIlRwP1pR6XqqD-218">
          <mxGeometry x="-0.5046" y="-2" relative="1" as="geometry">
            <mxPoint as="offset" />
          </mxGeometry>
        </mxCell>
        <mxCell id="-fVPYMPIlRwP1pR6XqqD-221" value="" style="endArrow=none;html=1;rounded=0;entryX=0.984;entryY=0.289;entryDx=0;entryDy=0;fillColor=#647687;strokeColor=#314354;strokeWidth=1;entryPerimeter=0;exitX=0.548;exitY=0.121;exitDx=0;exitDy=0;exitPerimeter=0;" parent="1" source="-fVPYMPIlRwP1pR6XqqD-179" target="-fVPYMPIlRwP1pR6XqqD-189" edge="1">
          <mxGeometry relative="1" as="geometry">
            <mxPoint x="292" y="584" as="sourcePoint" />
            <mxPoint x="347" y="494" as="targetPoint" />
          </mxGeometry>
        </mxCell>
        <mxCell id="-fVPYMPIlRwP1pR6XqqD-223" value="" style="endArrow=none;html=1;rounded=0;exitX=0.546;exitY=-0.034;exitDx=0;exitDy=0;fillColor=#647687;strokeColor=#314354;strokeWidth=1;entryX=0.552;entryY=0.908;entryDx=0;entryDy=0;entryPerimeter=0;exitPerimeter=0;" parent="1" source="-fVPYMPIlRwP1pR6XqqD-40" target="-fVPYMPIlRwP1pR6XqqD-55" edge="1">
          <mxGeometry width="50" height="50" relative="1" as="geometry">
            <mxPoint x="448" y="700" as="sourcePoint" />
            <mxPoint x="460" y="650" as="targetPoint" />
          </mxGeometry>
        </mxCell>
        <mxCell id="-fVPYMPIlRwP1pR6XqqD-224" value="" style="endArrow=none;html=1;rounded=0;entryX=0.872;entryY=0.572;entryDx=0;entryDy=0;fillColor=#647687;strokeColor=#314354;strokeWidth=1;entryPerimeter=0;exitX=0;exitY=0.25;exitDx=0;exitDy=0;" parent="1" source="-fVPYMPIlRwP1pR6XqqD-40" target="-fVPYMPIlRwP1pR6XqqD-178" edge="1">
          <mxGeometry relative="1" as="geometry">
            <mxPoint x="542" y="706.25" as="sourcePoint" />
            <mxPoint x="512" y="696.25" as="targetPoint" />
          </mxGeometry>
        </mxCell>
        <mxCell id="53eYGO9K9trzq3Cw-7BK-2" value="class" style="whiteSpace=wrap;html=1;fillColor=#647687;strokeColor=#314354;fontColor=#ffffff;" vertex="1" parent="1">
          <mxGeometry x="335" y="-10" width="100" height="30" as="geometry" />
        </mxCell>
        <mxCell id="53eYGO9K9trzq3Cw-7BK-3" value="Name" style="ellipse;whiteSpace=wrap;html=1;" vertex="1" parent="1">
          <mxGeometry x="327" y="-80" width="50" height="30" as="geometry" />
        </mxCell>
        <mxCell id="53eYGO9K9trzq3Cw-7BK-4" value="ClassID" style="ellipse;whiteSpace=wrap;html=1;" vertex="1" parent="1">
          <mxGeometry x="425" y="-80" width="50" height="30" as="geometry" />
        </mxCell>
        <mxCell id="53eYGO9K9trzq3Cw-7BK-7" value="" style="endArrow=none;html=1;rounded=0;entryX=0.25;entryY=0;entryDx=0;entryDy=0;" edge="1" parent="1" source="53eYGO9K9trzq3Cw-7BK-3" target="53eYGO9K9trzq3Cw-7BK-2">
          <mxGeometry width="50" height="50" relative="1" as="geometry">
            <mxPoint x="400" y="-74" as="sourcePoint" />
            <mxPoint x="371" y="-41" as="targetPoint" />
          </mxGeometry>
        </mxCell>
        <mxCell id="53eYGO9K9trzq3Cw-7BK-9" value="" style="endArrow=none;html=1;rounded=0;exitX=0.292;exitY=0.887;exitDx=0;exitDy=0;entryX=0.75;entryY=0;entryDx=0;entryDy=0;exitPerimeter=0;" edge="1" parent="1" source="53eYGO9K9trzq3Cw-7BK-4" target="53eYGO9K9trzq3Cw-7BK-2">
          <mxGeometry width="50" height="50" relative="1" as="geometry">
            <mxPoint x="463" y="-69" as="sourcePoint" />
            <mxPoint x="454" y="-24" as="targetPoint" />
          </mxGeometry>
        </mxCell>
        <mxCell id="53eYGO9K9trzq3Cw-7BK-10" value="teach&amp;nbsp;" style="shape=rhombus;perimeter=rhombusPerimeter;whiteSpace=wrap;html=1;align=center;" vertex="1" parent="1">
          <mxGeometry x="-30" y="202.75" width="50" height="46" as="geometry" />
        </mxCell>
        <mxCell id="53eYGO9K9trzq3Cw-7BK-12" value="" style="endArrow=none;html=1;rounded=0;entryX=1;entryY=0.5;entryDx=0;entryDy=0;fillColor=#647687;strokeColor=#314354;strokeWidth=3;exitX=0.13;exitY=0.015;exitDx=0;exitDy=0;exitPerimeter=0;" edge="1" parent="1" source="-fVPYMPIlRwP1pR6XqqD-169" target="53eYGO9K9trzq3Cw-7BK-10">
          <mxGeometry width="50" height="50" relative="1" as="geometry">
            <mxPoint x="190" y="460" as="sourcePoint" />
            <mxPoint x="150" y="249" as="targetPoint" />
          </mxGeometry>
        </mxCell>
        <mxCell id="53eYGO9K9trzq3Cw-7BK-17" value="M" style="edgeLabel;html=1;align=center;verticalAlign=middle;resizable=0;points=[];" vertex="1" connectable="0" parent="53eYGO9K9trzq3Cw-7BK-12">
          <mxGeometry x="-0.5694" relative="1" as="geometry">
            <mxPoint as="offset" />
          </mxGeometry>
        </mxCell>
        <mxCell id="53eYGO9K9trzq3Cw-7BK-13" value="" style="endArrow=none;html=1;rounded=0;exitX=0.5;exitY=0;exitDx=0;exitDy=0;fillColor=#647687;strokeColor=#314354;strokeWidth=3;entryX=0;entryY=0.5;entryDx=0;entryDy=0;" edge="1" parent="1" source="53eYGO9K9trzq3Cw-7BK-10" target="53eYGO9K9trzq3Cw-7BK-2">
          <mxGeometry width="50" height="50" relative="1" as="geometry">
            <mxPoint x="196" y="149" as="sourcePoint" />
            <mxPoint x="176" y="76" as="targetPoint" />
          </mxGeometry>
        </mxCell>
        <mxCell id="53eYGO9K9trzq3Cw-7BK-14" value="M" style="edgeLabel;html=1;align=center;verticalAlign=middle;resizable=0;points=[];" vertex="1" connectable="0" parent="53eYGO9K9trzq3Cw-7BK-13">
          <mxGeometry x="0.6561" relative="1" as="geometry">
            <mxPoint as="offset" />
          </mxGeometry>
        </mxCell>
        <mxCell id="53eYGO9K9trzq3Cw-7BK-18" value="Year" style="ellipse;whiteSpace=wrap;html=1;align=center;" vertex="1" parent="1">
          <mxGeometry x="-85" y="153" width="55" height="22" as="geometry" />
        </mxCell>
        <mxCell id="53eYGO9K9trzq3Cw-7BK-19" value="" style="endArrow=none;html=1;rounded=0;exitX=0.26;exitY=0.266;exitDx=0;exitDy=0;exitPerimeter=0;entryX=1;entryY=1;entryDx=0;entryDy=0;" edge="1" parent="1" source="53eYGO9K9trzq3Cw-7BK-10" target="53eYGO9K9trzq3Cw-7BK-18">
          <mxGeometry width="50" height="50" relative="1" as="geometry">
            <mxPoint x="180" y="156" as="sourcePoint" />
            <mxPoint x="140" y="140" as="targetPoint" />
          </mxGeometry>
        </mxCell>
        <mxCell id="53eYGO9K9trzq3Cw-7BK-25" value="Has" style="rhombus;whiteSpace=wrap;html=1;" vertex="1" parent="1">
          <mxGeometry x="374" y="59" width="60" height="50" as="geometry" />
        </mxCell>
        <mxCell id="53eYGO9K9trzq3Cw-7BK-28" value="" style="endArrow=none;html=1;rounded=0;entryX=0.62;entryY=0.982;entryDx=0;entryDy=0;exitX=0.5;exitY=0;exitDx=0;exitDy=0;fillColor=#647687;strokeColor=#314354;strokeWidth=3;entryPerimeter=0;" edge="1" parent="1" source="53eYGO9K9trzq3Cw-7BK-25" target="53eYGO9K9trzq3Cw-7BK-2">
          <mxGeometry width="50" height="50" relative="1" as="geometry">
            <mxPoint x="407.5" y="93" as="sourcePoint" />
            <mxPoint x="387.5" y="20" as="targetPoint" />
          </mxGeometry>
        </mxCell>
        <mxCell id="53eYGO9K9trzq3Cw-7BK-30" value="1" style="edgeLabel;html=1;align=center;verticalAlign=middle;resizable=0;points=[];" vertex="1" connectable="0" parent="53eYGO9K9trzq3Cw-7BK-28">
          <mxGeometry x="0.234" relative="1" as="geometry">
            <mxPoint y="1" as="offset" />
          </mxGeometry>
        </mxCell>
        <mxCell id="53eYGO9K9trzq3Cw-7BK-29" value="" style="endArrow=none;html=1;rounded=0;entryX=0.5;entryY=1;entryDx=0;entryDy=0;exitX=0.5;exitY=0;exitDx=0;exitDy=0;fillColor=#647687;strokeColor=#314354;strokeWidth=3;" edge="1" parent="1" source="-fVPYMPIlRwP1pR6XqqD-1" target="53eYGO9K9trzq3Cw-7BK-25">
          <mxGeometry width="50" height="50" relative="1" as="geometry">
            <mxPoint x="420" y="179" as="sourcePoint" />
            <mxPoint x="400" y="106" as="targetPoint" />
          </mxGeometry>
        </mxCell>
        <mxCell id="53eYGO9K9trzq3Cw-7BK-31" value="M" style="edgeLabel;html=1;align=center;verticalAlign=middle;resizable=0;points=[];" vertex="1" connectable="0" parent="53eYGO9K9trzq3Cw-7BK-29">
          <mxGeometry x="-0.3891" relative="1" as="geometry">
            <mxPoint as="offset" />
          </mxGeometry>
        </mxCell>
        <mxCell id="53eYGO9K9trzq3Cw-7BK-34" value="Allownace" style="ellipse;whiteSpace=wrap;html=1;" vertex="1" parent="1">
          <mxGeometry x="467" y="507.25" width="50" height="30" as="geometry" />
        </mxCell>
        <mxCell id="53eYGO9K9trzq3Cw-7BK-37" value="answer" style="rhombus;whiteSpace=wrap;html=1;" vertex="1" parent="1">
          <mxGeometry x="552" y="535.25" width="60" height="50" as="geometry" />
        </mxCell>
        <mxCell id="53eYGO9K9trzq3Cw-7BK-38" value="" style="endArrow=none;html=1;rounded=0;entryX=0.75;entryY=1;entryDx=0;entryDy=0;exitX=0.5;exitY=0;exitDx=0;exitDy=0;fillColor=#647687;strokeColor=#314354;strokeWidth=3;" edge="1" parent="1" source="53eYGO9K9trzq3Cw-7BK-37" target="-fVPYMPIlRwP1pR6XqqD-1">
          <mxGeometry width="50" height="50" relative="1" as="geometry">
            <mxPoint x="444" y="330.87" as="sourcePoint" />
            <mxPoint x="460" y="254.87" as="targetPoint" />
          </mxGeometry>
        </mxCell>
        <mxCell id="53eYGO9K9trzq3Cw-7BK-39" value="M" style="edgeLabel;html=1;align=center;verticalAlign=middle;resizable=0;points=[];" vertex="1" connectable="0" parent="53eYGO9K9trzq3Cw-7BK-38">
          <mxGeometry x="0.5768" y="3" relative="1" as="geometry">
            <mxPoint as="offset" />
          </mxGeometry>
        </mxCell>
        <mxCell id="53eYGO9K9trzq3Cw-7BK-40" value="" style="endArrow=none;html=1;rounded=0;entryX=0.5;entryY=1;entryDx=0;entryDy=0;exitX=0.599;exitY=0.034;exitDx=0;exitDy=0;fillColor=#647687;strokeColor=#314354;strokeWidth=3;exitPerimeter=0;" edge="1" parent="1" source="-fVPYMPIlRwP1pR6XqqD-40" target="53eYGO9K9trzq3Cw-7BK-37">
          <mxGeometry width="50" height="50" relative="1" as="geometry">
            <mxPoint x="627" y="673.25" as="sourcePoint" />
            <mxPoint x="643" y="597.25" as="targetPoint" />
          </mxGeometry>
        </mxCell>
        <mxCell id="53eYGO9K9trzq3Cw-7BK-41" value="M" style="edgeLabel;html=1;align=center;verticalAlign=middle;resizable=0;points=[];" vertex="1" connectable="0" parent="53eYGO9K9trzq3Cw-7BK-40">
          <mxGeometry x="0.5768" y="3" relative="1" as="geometry">
            <mxPoint as="offset" />
          </mxGeometry>
        </mxCell>
      </root>
    </mxGraphModel>
  </diagram>
</mxfile>
